<?xml version="1.0" encoding="UTF-8"?>
<svg width="211px" height="36px" viewBox="0 0 211 36" version="1.1" xmlns="http://www.w3.org/2000/svg" xmlns:xlink="http://www.w3.org/1999/xlink">
    <!-- Generator: Sketch 55 (78076) - https://sketchapp.com -->
    <title>Group 2</title>
    <desc>Created with Sketch.</desc>
    <g id="Symbols" stroke="none" stroke-width="1" fill="none" fill-rule="evenodd">
        <g id="Navs-/-Topbar-/-Back-Office-/-Default" transform="translate(-22.000000, -14.000000)">
            <g id="Group-2" transform="translate(22.000000, 14.000000)">
                <g id="flex" fill="#37474F">
                    <path d="M18.1065089,33.7263158 C26.6854044,33.7263158 33.7263158,26.6854044 33.7263158,18.1065089 C33.7263158,9.34352758 26.7140295,2.27368421 18.1065089,2.27368421 C9.31459562,2.27368421 2.27368421,9.31459562 2.27368421,18.1065089 C2.27368421,26.7140295 9.34352758,33.7263158 18.1065089,33.7263158 Z M18.1065089,36 C8.0588745,36 0,27.9411255 0,18.1065089 C0,8.0588745 8.0588745,0 18.1065089,0 C27.9411255,0 36,8.0588745 36,18.1065089 C36,27.9411255 27.9411255,36 18.1065089,36 Z" id="Combined-Shape" fill-rule="nonzero"></path>
                    <path d="M17.4273116,13.2318013 L17.4273116,13.2318013 C17.7910708,13.2318013 18.1437294,13.3570942 18.4259501,13.5865985 L22.6335383,17.0082461 C23.0073792,17.3122568 23.5155874,17.3923217 23.9647902,17.217976 L25.9501464,16.4474499 C26.12921,16.3779513 26.331344,16.4044768 26.4864134,16.5178227 C27.8098631,17.4851809 28.690703,18.1399219 29.1289331,18.482046 C30.0336969,19.1883905 30.8193699,19.7777085 31.4859521,20.25 C31.4743941,19.9900435 31.4743941,19.7200618 31.4859521,19.4400548 C31.8459775,10.7179856 25.2323704,4.39017199 17.8022087,4.50144478 C10.380328,4.61568447 4.38132434,10.5661969 4.50178288,18.8353905 C4.50931796,19.299721 4.54849178,19.7712575 4.61930433,20.25 L6.50953247,18.8353905 L8.80621735,17.1806278 C9.1224188,16.9528045 9.54512988,16.9392802 9.87524776,17.1464251 L10.7990522,17.7261009 C11.0087944,17.8577115 11.2792536,17.840184 11.4702543,17.6826026 L16.4311941,13.5896763 C16.7116015,13.3583317 17.063789,13.2318013 17.4273116,13.2318013 Z" id="Oval-3"></path>
                    <path d="M16.6359171,34.7904429 C18.8194635,35.0436739 20.6187424,34.6643806 21.2437438,34.4859829 C21.5287553,34.4046304 22.5940549,34.1439712 22.8451751,34.0596072 C23.6863506,33.7770138 24.9699255,33.1781771 25.7012825,32.7417531 C26.7957427,32.0886539 27.5685079,31.4006762 28.6388187,30.4354143 C31.0150068,28.2924443 32.625,24.324876 32.625,23.9200259 C32.625,23.8506883 30.7196105,22.3856801 26.9088314,19.5250014 L26.90884,19.5249899 C26.7122217,19.3773923 26.4367041,19.3981755 26.2644522,19.5735981 L26.2644522,19.5735981 C26.0891832,19.7520935 26.0626609,20.0288647 26.2008419,20.2373973 C27.1101428,21.6096753 27.5830341,22.3511085 27.6195025,22.4617054 C27.7920376,22.9849486 27.5464526,23.2803883 27.3008922,23.1231096 C27.1371852,23.018257 25.2250881,21.7329576 21.5646009,19.2672111 L18.2801753,16.9962732 C17.9983154,16.801388 17.6118372,16.8718948 17.4169519,17.1537546 C17.3452481,17.2574588 17.3068387,17.3805463 17.3068387,17.5066256 L17.3068387,17.5066256 C17.2327622,18.5799735 17.195724,19.4669718 17.195724,20.1676204 C17.195724,20.5940963 17.1518222,21.1117836 16.6359171,21.2459664 C16.4636052,21.2907833 16.1594468,21.326346 15.7234419,21.3526543 L10.1750604,20.9334348 C9.9495117,20.916393 9.75285327,21.0854212 9.73581147,21.3109699 C9.72694237,21.4283526 9.76901069,21.5438761 9.85128428,21.6280689 L9.85128428,21.6280689 C14.7475774,24.9326054 17.195724,26.7193851 17.195724,26.9884078 C17.195724,27.8459935 14.5519789,26.471815 12.4773257,25.4639351 C10.5861018,24.5451663 8.57691591,23.6784316 6.44976815,22.8637312 L6.44980551,22.8636336 C6.34438635,22.823258 6.22639932,22.8324255 6.12848206,22.8886003 C4.27921202,23.9495199 3.36143516,24.5002184 3.37515148,24.5406958 C4.08779766,26.6437391 5.97805566,29.7234902 8.84189618,31.774512 C9.986999,32.5946104 11.3078554,33.3605868 12.5939016,33.8364556 C14.0645243,34.3806222 15.6063996,34.7904429 16.6359171,34.7904429 Z" id="Oval-4"></path>
                </g>
                <path d="M45.4453125,19 L45.4453125,4.78125 L49.6445312,4.78125 C50.9010479,4.78125 52.0159457,5.06119512 52.9892578,5.62109375 C53.96257,6.18099238 54.7161432,6.97525527 55.25,8.00390625 C55.7838568,9.03255723 56.0507812,10.2109309 56.0507812,11.5390625 L56.0507812,12.2519531 C56.0507812,13.5996161 55.7822292,14.7845001 55.2451172,15.8066406 C54.7080051,16.8287812 53.9430388,17.6165337 52.9501953,18.1699219 C51.9573518,18.7233101 50.8196679,19 49.5371094,19 L45.4453125,19 Z M47.9160156,6.7734375 L47.9160156,17.0273438 L49.5273438,17.0273438 C50.8229231,17.0273438 51.8173793,16.6220744 52.5107422,15.8115234 C53.204105,15.0009725 53.5572916,13.8372472 53.5703125,12.3203125 L53.5703125,11.5292969 C53.5703125,9.98632041 53.2350294,8.80794678 52.5644531,7.99414062 C51.8938769,7.18033447 50.9205793,6.7734375 49.6445312,6.7734375 L47.9160156,6.7734375 Z M62.8799913,19.1953125 C61.3760775,19.1953125 60.1570142,18.7216844 59.2227648,17.7744141 C58.2885153,16.8271437 57.8213976,15.5657631 57.8213976,13.9902344 L57.8213976,13.6972656 C57.8213976,12.6425729 58.0248461,11.7001995 58.4317491,10.8701172 C58.8386522,10.0400349 59.4099356,9.39388252 60.1456163,8.93164062 C60.8812971,8.46939873 61.7016014,8.23828125 62.6065538,8.23828125 C64.0453631,8.23828125 65.1570056,8.69726104 65.9415148,9.61523438 C66.7260239,10.5332077 67.1182726,11.8320229 67.1182726,13.5117188 L67.1182726,14.46875 L60.2139757,14.46875 C60.2855906,15.3411502 60.5769289,16.0312475 61.0879991,16.5390625 C61.5990694,17.0468775 62.2419666,17.3007812 63.0167101,17.3007812 C64.1039551,17.3007812 64.9893629,16.8613325 65.6729601,15.9824219 L66.9522569,17.203125 C66.5290777,17.8346386 65.9643047,18.3245425 65.257921,18.6728516 C64.5515373,19.0211606 63.758902,19.1953125 62.8799913,19.1953125 Z M62.5967882,10.1425781 C61.9457433,10.1425781 61.4200324,10.3704404 61.0196398,10.8261719 C60.6192471,11.2819033 60.3637158,11.9166626 60.2530382,12.7304688 L64.7745226,12.7304688 L64.7745226,12.5546875 C64.722439,11.7604127 64.5108525,11.1598328 64.1397569,10.7529297 C63.7686613,10.3460266 63.2543436,10.1425781 62.5967882,10.1425781 Z M72.5021701,15.9921875 L74.7384983,8.43359375 L77.1896701,8.43359375 L73.5275608,19 L71.4670139,19 L67.7756076,8.43359375 L70.2365451,8.43359375 L72.5021701,15.9921875 Z M81.1380208,19 L78.7649739,19 L78.7649739,8.43359375 L81.1380208,8.43359375 L81.1380208,19 Z M78.6184896,5.68945312 C78.6184896,5.32486797 78.7340483,5.02213662 78.9651693,4.78125 C79.1962902,4.54036338 79.5266905,4.41992188 79.9563802,4.41992188 C80.3860698,4.41992188 80.7180978,4.54036338 80.9524739,4.78125 C81.1868501,5.02213662 81.3040364,5.32486797 81.3040364,5.68945312 C81.3040364,6.04752783 81.1868501,6.34537642 80.9524739,6.58300781 C80.7180978,6.82063921 80.3860698,6.93945312 79.9563802,6.93945312 C79.5266905,6.93945312 79.1962902,6.82063921 78.9651693,6.58300781 C78.7340483,6.34537642 78.6184896,6.04752783 78.6184896,5.68945312 Z M89.9789496,19 C89.8747824,18.7981761 89.7836375,18.4694033 89.7055121,18.0136719 C88.9503,18.8014362 88.0258301,19.1953125 86.9320746,19.1953125 C85.8708714,19.1953125 85.0049947,18.8925812 84.3344184,18.2871094 C83.6638421,17.6816376 83.328559,16.9329472 83.328559,16.0410156 C83.328559,14.9147079 83.7468491,14.0504587 84.5834418,13.4482422 C85.4200345,12.8460256 86.6163116,12.5449219 88.172309,12.5449219 L89.6273871,12.5449219 L89.6273871,11.8515625 C89.6273871,11.3046848 89.4743939,10.8668636 89.1684028,10.5380859 C88.8624116,10.2093083 88.3969215,10.0449219 87.7719184,10.0449219 C87.2315511,10.0449219 86.7888472,10.1800117 86.4437934,10.4501953 C86.0987396,10.720379 85.9262153,11.0638 85.9262153,11.4804688 L83.5531684,11.4804688 C83.5531684,10.9010388 83.7452238,10.359052 84.1293403,9.85449219 C84.5134568,9.34993237 85.0359125,8.95442852 85.6967231,8.66796875 C86.3575337,8.38150898 87.094831,8.23828125 87.9086371,8.23828125 C89.1456225,8.23828125 90.1319407,8.54915054 90.8676215,9.17089844 C91.6033023,9.79264634 91.9809027,10.666661 92.000434,11.7929688 L92.000434,16.5585938 C92.000434,17.5091193 92.1338962,18.2675753 92.4008246,18.8339844 L92.4008246,19 L89.9789496,19 Z M87.3715278,17.2910156 C87.8402801,17.2910156 88.2813564,17.1770845 88.6947699,16.9492188 C89.1081835,16.721353 89.4190528,16.4153665 89.6273871,16.03125 L89.6273871,14.0390625 L88.3480903,14.0390625 C87.4691796,14.0390625 86.8083789,14.1920558 86.3656684,14.4980469 C85.9229578,14.804038 85.7016059,15.2369764 85.7016059,15.796875 C85.7016059,16.2526064 85.8529716,16.6155585 86.1557074,16.8857422 C86.4584433,17.1559258 86.8637127,17.2910156 87.3715278,17.2910156 Z M100.353082,16.1289062 C100.353082,15.7057271 100.17893,15.3834646 99.8306206,15.1621094 C99.4823116,14.9407541 98.9045179,14.7454436 98.0972222,14.5761719 C97.2899265,14.4069002 96.6161051,14.1920586 96.0757378,13.9316406 C94.8908361,13.3587211 94.2983941,12.5286513 94.2983941,11.4414062 C94.2983941,10.5299434 94.6825048,9.76823223 95.4507378,9.15625 C96.2189708,8.54426777 97.1955236,8.23828125 98.3804253,8.23828125 C99.6434525,8.23828125 100.66395,8.55077813 101.441949,9.17578125 C102.219947,9.80078437 102.608941,10.6113231 102.608941,11.6074219 L100.235894,11.6074219 C100.235894,11.1516904 100.066625,10.7724625 99.7280816,10.4697266 C99.3895382,10.1669907 98.940324,10.015625 98.3804253,10.015625 C97.8595894,10.015625 97.4347889,10.1360665 97.1060113,10.3769531 C96.7772336,10.6178397 96.6128472,10.9401021 96.6128472,11.34375 C96.6128472,11.7083352 96.7658405,11.9915354 97.0718316,12.1933594 C97.3778227,12.3951833 97.9963061,12.5986318 98.9273003,12.8037109 C99.8582946,13.0087901 100.589082,13.2529283 101.119683,13.5361328 C101.650285,13.8193374 102.044161,14.1595032 102.301324,14.5566406 C102.558487,14.953778 102.687066,15.435544 102.687066,16.0019531 C102.687066,16.9524787 102.29319,17.7223278 101.505425,18.3115234 C100.717661,18.9007191 99.6857702,19.1953125 98.4097222,19.1953125 C97.5438325,19.1953125 96.7723558,19.0390641 96.0952691,18.7265625 C95.4181824,18.4140609 94.8908439,17.9843777 94.5132378,17.4375 C94.1356318,16.8906223 93.9468316,16.3014354 93.9468316,15.6699219 L96.2515191,15.6699219 C96.2840713,16.2298205 96.4956577,16.6611313 96.8862847,16.9638672 C97.2769117,17.2666031 97.7944846,17.4179688 98.4390191,17.4179688 C99.0640222,17.4179688 99.5392779,17.2991548 99.8648003,17.0615234 C100.190323,16.823892 100.353082,16.5130228 100.353082,16.1289062 Z M113.05447,4.78125 L117.156033,15.6796875 L121.24783,4.78125 L124.441189,4.78125 L124.441189,19 L121.980252,19 L121.980252,14.3125 L122.224392,8.04296875 L118.025174,19 L116.257595,19 L112.068142,8.05273438 L112.312283,14.3125 L112.312283,19 L109.851345,19 L109.851345,4.78125 L113.05447,4.78125 Z M133.38954,19 C133.285373,18.7981761 133.194228,18.4694033 133.116102,18.0136719 C132.36089,18.8014362 131.43642,19.1953125 130.342665,19.1953125 C129.281462,19.1953125 128.415585,18.8925812 127.745009,18.2871094 C127.074432,17.6816376 126.739149,16.9329472 126.739149,16.0410156 C126.739149,14.9147079 127.157439,14.0504587 127.994032,13.4482422 C128.830625,12.8460256 130.026902,12.5449219 131.582899,12.5449219 L133.037977,12.5449219 L133.037977,11.8515625 C133.037977,11.3046848 132.884984,10.8668636 132.578993,10.5380859 C132.273002,10.2093083 131.807512,10.0449219 131.182509,10.0449219 C130.642141,10.0449219 130.199437,10.1800117 129.854384,10.4501953 C129.50933,10.720379 129.336806,11.0638 129.336806,11.4804688 L126.963759,11.4804688 C126.963759,10.9010388 127.155814,10.359052 127.539931,9.85449219 C127.924047,9.34993237 128.446503,8.95442852 129.107313,8.66796875 C129.768124,8.38150898 130.505421,8.23828125 131.319227,8.23828125 C132.556213,8.23828125 133.542531,8.54915054 134.278212,9.17089844 C135.013893,9.79264634 135.391493,10.666661 135.411024,11.7929688 L135.411024,16.5585938 C135.411024,17.5091193 135.544486,18.2675753 135.811415,18.8339844 L135.811415,19 L133.38954,19 Z M130.782118,17.2910156 C131.25087,17.2910156 131.691947,17.1770845 132.10536,16.9492188 C132.518774,16.721353 132.829643,16.4153665 133.037977,16.03125 L133.037977,14.0390625 L131.758681,14.0390625 C130.87977,14.0390625 130.218969,14.1920558 129.776259,14.4980469 C129.333548,14.804038 129.112196,15.2369764 129.112196,15.796875 C129.112196,16.2526064 129.263562,16.6155585 129.566298,16.8857422 C129.869034,17.1559258 130.274303,17.2910156 130.782118,17.2910156 Z M140.814453,5.86523438 L140.814453,8.43359375 L142.679687,8.43359375 L142.679687,10.1914062 L140.814453,10.1914062 L140.814453,16.0898438 C140.814453,16.4934916 140.894205,16.7848298 141.053711,16.9638672 C141.213217,17.1429045 141.498045,17.2324219 141.908203,17.2324219 C142.181642,17.2324219 142.458332,17.1998701 142.738281,17.1347656 L142.738281,18.9707031 C142.197914,19.1204435 141.677086,19.1953125 141.175781,19.1953125 C139.352855,19.1953125 138.441406,18.1894632 138.441406,16.1777344 L138.441406,10.1914062 L136.703125,10.1914062 L136.703125,8.43359375 L138.441406,8.43359375 L138.441406,5.86523438 L140.814453,5.86523438 Z M149.088976,19.1953125 C147.585062,19.1953125 146.365999,18.7216844 145.431749,17.7744141 C144.4975,16.8271437 144.030382,15.5657631 144.030382,13.9902344 L144.030382,13.6972656 C144.030382,12.6425729 144.23383,11.7001995 144.640733,10.8701172 C145.047637,10.0400349 145.61892,9.39388252 146.354601,8.93164062 C147.090281,8.46939873 147.910586,8.23828125 148.815538,8.23828125 C150.254347,8.23828125 151.36599,8.69726104 152.150499,9.61523438 C152.935008,10.5332077 153.327257,11.8320229 153.327257,13.5117188 L153.327257,14.46875 L146.42296,14.46875 C146.494575,15.3411502 146.785913,16.0312475 147.296983,16.5390625 C147.808054,17.0468775 148.450951,17.3007812 149.225694,17.3007812 C150.312939,17.3007812 151.198347,16.8613325 151.881944,15.9824219 L153.161241,17.203125 C152.738062,17.8346386 152.173289,18.3245425 151.466905,18.6728516 C150.760522,19.0211606 149.967886,19.1953125 149.088976,19.1953125 Z M148.805773,10.1425781 C148.154728,10.1425781 147.629017,10.3704404 147.228624,10.8261719 C146.828231,11.2819033 146.5727,11.9166626 146.462023,12.7304688 L150.983507,12.7304688 L150.983507,12.5546875 C150.931423,11.7604127 150.719837,11.1598328 150.348741,10.7529297 C149.977646,10.3460266 149.463328,10.1425781 148.805773,10.1425781 Z M160.644748,10.6015625 C160.332247,10.5494789 160.009984,10.5234375 159.677951,10.5234375 C158.590706,10.5234375 157.858292,10.9401 157.480686,11.7734375 L157.480686,19 L155.107639,19 L155.107639,8.43359375 L157.373264,8.43359375 L157.431858,9.61523438 C158.004777,8.69726104 158.79904,8.23828125 159.81467,8.23828125 C160.153213,8.23828125 160.433159,8.28385371 160.654514,8.375 L160.644748,10.6015625 Z M164.61263,19 L162.239583,19 L162.239583,8.43359375 L164.61263,8.43359375 L164.61263,19 Z M162.093099,5.68945312 C162.093099,5.32486797 162.208658,5.02213662 162.439779,4.78125 C162.6709,4.54036338 163.0013,4.41992188 163.43099,4.41992188 C163.860679,4.41992188 164.192707,4.54036338 164.427083,4.78125 C164.661459,5.02213662 164.778646,5.32486797 164.778646,5.68945312 C164.778646,6.04752783 164.661459,6.34537642 164.427083,6.58300781 C164.192707,6.82063921 163.860679,6.93945312 163.43099,6.93945312 C163.0013,6.93945312 162.6709,6.82063921 162.439779,6.58300781 C162.208658,6.34537642 162.093099,6.04752783 162.093099,5.68945312 Z M173.453559,19 C173.349392,18.7981761 173.258247,18.4694033 173.180121,18.0136719 C172.424909,18.8014362 171.500439,19.1953125 170.406684,19.1953125 C169.345481,19.1953125 168.479604,18.8925812 167.809028,18.2871094 C167.138451,17.6816376 166.803168,16.9329472 166.803168,16.0410156 C166.803168,14.9147079 167.221458,14.0504587 168.058051,13.4482422 C168.894644,12.8460256 170.090921,12.5449219 171.646918,12.5449219 L173.101996,12.5449219 L173.101996,11.8515625 C173.101996,11.3046848 172.949003,10.8668636 172.643012,10.5380859 C172.337021,10.2093083 171.871531,10.0449219 171.246528,10.0449219 C170.70616,10.0449219 170.263457,10.1800117 169.918403,10.4501953 C169.573349,10.720379 169.400825,11.0638 169.400825,11.4804688 L167.027778,11.4804688 C167.027778,10.9010388 167.219833,10.359052 167.60395,9.85449219 C167.988066,9.34993237 168.510522,8.95442852 169.171332,8.66796875 C169.832143,8.38150898 170.56944,8.23828125 171.383246,8.23828125 C172.620232,8.23828125 173.60655,8.54915054 174.342231,9.17089844 C175.077912,9.79264634 175.455512,10.666661 175.475043,11.7929688 L175.475043,16.5585938 C175.475043,17.5091193 175.608506,18.2675753 175.875434,18.8339844 L175.875434,19 L173.453559,19 Z M170.846137,17.2910156 C171.314889,17.2910156 171.755966,17.1770845 172.169379,16.9492188 C172.582793,16.721353 172.893662,16.4153665 173.101996,16.03125 L173.101996,14.0390625 L171.8227,14.0390625 C170.943789,14.0390625 170.282988,14.1920558 169.840278,14.4980469 C169.397567,14.804038 169.176215,15.2369764 169.176215,15.796875 C169.176215,16.2526064 169.327581,16.6155585 169.630317,16.8857422 C169.933053,17.1559258 170.338322,17.2910156 170.846137,17.2910156 Z M180.429253,19 L178.056207,19 L178.056207,4 L180.429253,4 L180.429253,19 Z M192.193142,12.8574219 L190.581814,14.5664062 L190.581814,19 L188.111111,19 L188.111111,4.78125 L190.581814,4.78125 L190.581814,11.4511719 L191.949002,9.76171875 L196.109158,4.78125 L199.097439,4.78125 L193.814236,11.0800781 L199.400174,19 L196.470486,19 L192.193142,12.8574219 Z M202.957899,19 L200.584852,19 L200.584852,8.43359375 L202.957899,8.43359375 L202.957899,19 Z M200.438368,5.68945312 C200.438368,5.32486797 200.553927,5.02213662 200.785048,4.78125 C201.016169,4.54036338 201.346569,4.41992188 201.776259,4.41992188 C202.205948,4.41992188 202.537976,4.54036338 202.772352,4.78125 C203.006729,5.02213662 203.123915,5.32486797 203.123915,5.68945312 C203.123915,6.04752783 203.006729,6.34537642 202.772352,6.58300781 C202.537976,6.82063921 202.205948,6.93945312 201.776259,6.93945312 C201.346569,6.93945312 201.016169,6.82063921 200.785048,6.58300781 C200.553927,6.34537642 200.438368,6.04752783 200.438368,5.68945312 Z M208.458984,5.86523438 L208.458984,8.43359375 L210.324219,8.43359375 L210.324219,10.1914062 L208.458984,10.1914062 L208.458984,16.0898438 C208.458984,16.4934916 208.538736,16.7848298 208.698242,16.9638672 C208.857748,17.1429045 209.142576,17.2324219 209.552734,17.2324219 C209.826173,17.2324219 210.102863,17.1998701 210.382812,17.1347656 L210.382812,18.9707031 C209.842445,19.1204435 209.321617,19.1953125 208.820312,19.1953125 C206.997387,19.1953125 206.085937,18.1894632 206.085937,16.1777344 L206.085937,10.1914062 L204.347656,10.1914062 L204.347656,8.43359375 L206.085937,8.43359375 L206.085937,5.86523438 L208.458984,5.86523438 Z" id="DeviasMaterialKit" fill="#263238" fill-rule="nonzero"></path>
                <path d="M49.5942383,31.8686523 C49.5444333,32.5571323 49.2902855,33.0991191 48.8317871,33.4946289 C48.3732887,33.8901387 47.7690467,34.0878906 47.019043,34.0878906 C46.1987264,34.0878906 45.5534691,33.8117703 45.083252,33.2595215 C44.6130348,32.7072726 44.3779297,31.9492236 44.3779297,30.9853516 L44.3779297,30.5942383 C44.3779297,29.9790008 44.486327,29.4370141 44.703125,28.9682617 C44.919923,28.4995094 45.2297343,28.1398938 45.6325684,27.8894043 C46.0354024,27.6389148 46.5034153,27.5136719 47.0366211,27.5136719 C47.774906,27.5136719 48.3696267,27.7114238 48.8208008,28.1069336 C49.2719749,28.5024434 49.5327145,29.0576136 49.6030273,29.7724609 L48.284668,29.7724609 C48.2524412,29.3593729 48.1374522,29.0598154 47.9396973,28.8737793 C47.7419424,28.6877432 47.44092,28.5947266 47.0366211,28.5947266 C46.5971658,28.5947266 46.2683116,28.7521957 46.0500488,29.0671387 C45.831786,29.3820817 45.7197266,29.8706022 45.7138672,30.5327148 L45.7138672,31.0161133 C45.7138672,31.707523 45.8186025,32.212889 46.0280762,32.5322266 C46.2375499,32.8515641 46.5678688,33.0112305 47.019043,33.0112305 C47.4262716,33.0112305 47.7302236,32.9182138 47.9309082,32.7321777 C48.1315928,32.5461416 48.2465819,32.2583027 48.2758789,31.8686523 L49.5942383,31.8686523 Z M54.3802683,32.940918 L57.1795847,32.940918 L57.1795847,34 L53.0619089,34 L53.0619089,27.6015625 L54.3802683,27.6015625 L54.3802683,32.940918 Z M61.9392476,34 L60.6208882,34 L60.6208882,27.6015625 L61.9392476,27.6015625 L61.9392476,34 Z M69.6124846,31.2270508 L67.0812346,31.2270508 L67.0812346,32.940918 L70.0519378,32.940918 L70.0519378,34 L65.7628753,34 L65.7628753,27.6015625 L70.0431487,27.6015625 L70.0431487,28.6694336 L67.0812346,28.6694336 L67.0812346,30.1943359 L69.6124846,30.1943359 L69.6124846,31.2270508 Z M78.6304483,34 L77.3120889,34 L74.7456826,29.7900391 L74.7456826,34 L73.4273233,34 L73.4273233,27.6015625 L74.7456826,27.6015625 L77.3164834,31.8203125 L77.3164834,27.6015625 L78.6304483,27.6015625 L78.6304483,34 Z M87.0727283,28.6694336 L85.1127673,28.6694336 L85.1127673,34 L83.794408,34 L83.794408,28.6694336 L81.8608142,28.6694336 L81.8608142,27.6015625 L87.0727283,27.6015625 L87.0727283,28.6694336 Z M98.6179329,32.6816406 L96.3064094,32.6816406 L95.8669563,34 L94.4651008,34 L96.8469368,27.6015625 L98.0686165,27.6015625 L100.463636,34 L99.0617805,34 L98.6179329,32.6816406 Z M96.6623665,31.6137695 L98.2619758,31.6137695 L97.4577766,29.21875 L96.6623665,31.6137695 Z M104.9816,31.7456055 L104.9816,34 L103.66324,34 L103.66324,27.6015625 L106.159334,27.6015625 C106.639805,27.6015625 107.062408,27.6894522 107.427156,27.8652344 C107.791904,28.0410165 108.072419,28.2907699 108.268709,28.614502 C108.464999,28.938234 108.563143,29.3066386 108.563143,29.7197266 C108.563143,30.3466828 108.348545,30.8410626 107.919344,31.2028809 C107.490142,31.5646991 106.896154,31.7456055 106.137361,31.7456055 L104.9816,31.7456055 Z M104.9816,30.6777344 L106.159334,30.6777344 C106.507969,30.6777344 106.773835,30.5957039 106.956941,30.4316406 C107.140048,30.2675773 107.2316,30.0332046 107.2316,29.7285156 C107.2316,29.4150375 107.139315,29.1616221 106.954744,28.9682617 C106.770173,28.7749014 106.515293,28.675293 106.190096,28.6694336 L104.9816,28.6694336 L104.9816,30.6777344 Z M113.388723,31.7456055 L113.388723,34 L112.070364,34 L112.070364,27.6015625 L114.566458,27.6015625 C115.046929,27.6015625 115.469532,27.6894522 115.83428,27.8652344 C116.199028,28.0410165 116.479543,28.2907699 116.675833,28.614502 C116.872123,28.938234 116.970266,29.3066386 116.970266,29.7197266 C116.970266,30.3466828 116.755669,30.8410626 116.326468,31.2028809 C115.897266,31.5646991 115.303278,31.7456055 114.544485,31.7456055 L113.388723,31.7456055 Z M113.388723,30.6777344 L114.566458,30.6777344 C114.915092,30.6777344 115.180959,30.5957039 115.364065,30.4316406 C115.547172,30.2675773 115.638723,30.0332046 115.638723,29.7285156 C115.638723,29.4150375 115.546439,29.1616221 115.361868,28.9682617 C115.177297,28.7749014 114.922416,28.675293 114.597219,28.6694336 L113.388723,28.6694336 L113.388723,30.6777344 Z" id="CLIENTAPP" fill="#607D8B" fill-rule="nonzero"></path>
            </g>
        </g>
    </g>
</svg>